<?xml version="1.0" encoding="UTF-8"?>
<svg xmlns="http://www.w3.org/2000/svg" version="1.1" viewBox="0 0 794 794">
  <defs>
    <style>
      .cls-1 {
        fill: #fff;
      }

      .cls-2 {
        fill: #070707;
      }
    </style>
  </defs>
  <!-- Generator: Adobe Illustrator 28.6.0, SVG Export Plug-In . SVG Version: 1.2.0 Build 709)  -->
  <g>
    <g id="Layer_1">
      <path class="cls-1" d="M0,0h794v794H0V0ZM355,582.5c16.8,2.1,55.3,1.4,72.5-1.3,47.8-7.5,93.6-27.5,132-57.8,5-3.9,12.4-9.3,16.5-12.1,56.1-37.6,94.6-96.1,106-160.7,14.5-82.4-11.4-163.5-70.5-220.8-13-12.6-19.5-17.9-33.5-27.4-6.3-4.3-13.8-9.7-16.5-11.9-35.1-29.2-82-50.1-131-58.5-19-3.3-50.5-4.2-72.5-2.1-25.7,2.4-57.5,10.6-81.7,21.2-92.2,40.1-153.8,122.8-166.4,223.4-1.9,14.9-1.6,52.3.5,67.2,4.1,29.1,10.6,52,22.4,78.3,19.1,42.6,48.6,79.5,86.2,108.1,39,29.6,85.1,48,136,54.4ZM482,543.7c-11.4,2.1-17.2,2.5-37.5,2.8-13.2.2-25.6.1-27.5,0-60.9-7.3-112.8-33.2-153-76.1-33.2-35.4-55.6-82.7-62.6-131.8-2.1-14.6-2.4-47.7-.5-61.5,3.5-25.8,11-51.5,21.7-73.9,6.6-13.8,8.8-17.6,18-31.6,29.2-44.1,77.1-79.7,128.9-95.5,40.9-12.5,88.5-13.8,129.6-3.4,33.4,8.4,66.8,25.1,93.4,46.7,9.5,7.7,27.1,25.4,35,35.2,26.3,32.5,43.4,70.8,50.6,113,3,17.7,3.3,57.1.5,74-8.8,53.2-31.6,98.4-68,134.8-35.8,35.8-78.7,58.2-128.7,67.4ZM388,425.9l11.2,34.4,4.1-.7c2.3-.4,4.4-1,4.8-1.4.7-.7,1.4-2.7,8.9-24.7,2.1-6,7.2-20.9,11.5-33,4.2-12.1,8.6-24.6,9.7-27.8,1.1-3.2,2.4-5.5,2.8-5,.4.5,7.4,21.1,15.5,45.8,8.1,24.8,15.1,45.4,15.6,45.9.5.5,2.5.5,5,0l4.2-.9,6.3-18c26.1-74.9,32.5-92.7,34.5-95.4,1-1.4,4.1-3.3,7.6-4.5,3.7-1.3,6-2.7,6.2-3.8.3-1.6-1-1.8-15.5-1.8-8.7,0-17.6-.3-19.7-.6-3.6-.6-3.8-.5-3.5,1.7.3,1.8,1.5,2.7,6.1,4.2,4,1.3,5.8,2.4,5.8,3.6,0,1.9-3,11.6-17.6,56.6-5.3,16.5-10,30.4-10.4,30.8-.4.4-2.6-5.2-4.9-12.5-2.3-7.3-8.2-25.7-13.1-40.8s-10-31.2-11.5-35.8c-2.5-7.8-2.8-8.2-5.5-8.2s-3.6.3-4.4.6c-1,.4-7.1,17.4-17.2,47.8-8.6,25.9-16,47.5-16.4,48-.8.8-3-4.4-7.1-16.7-1.1-3.4-4.6-13.1-7.6-21.7-3-8.5-7.7-21.6-10.3-29-2.6-7.4-5.5-15.5-6.4-17.9-.9-2.4-1.6-4.7-1.6-5.2s2.4-1.6,5.2-2.5c9.6-3.2,52.3-20.3,80.7-32.4,7.9-3.4,21.4-8.8,30-12.1,8.5-3.3,16.6-6.4,17.8-7,4-1.7,5.8-1.1,8,2.8,3.4,5.9,13.1,16.7,19.9,22.1,34,27.1,80.4,26.7,92.6-.8,2.8-6.2,2.7-14.4-.2-20.4-4.9-10.1-20.7-20.5-37.6-24.7-16-4-35.5-3.1-60.4,2.7-8,1.9-10.6,2.1-11.2,1.2-.4-.7-5.5-15.9-11.4-33.8-5.8-17.9-14.3-43.7-18.8-57.3l-8.1-24.8h-3.7c-4,0-6.3,1.6-7.4,5.3-.4,1.2-5.8,16.9-12,34.7-6.2,17.9-12.8,36.9-14.6,42.2-1.8,5.4-3.6,9.8-4,9.8s-7.5-20.7-15.8-46l-15.1-46h-3.7c-5,0-5.9.8-8.1,7.1-1.1,3-5.1,14.4-8.9,25.4-24.4,69.5-28.1,79.7-29.7,82.2-.8,1.2-4.1,3.2-7.5,4.4-4.4,1.6-6,2.7-6,4.1s1.1,1.9,19,1.9,19,0,19-2-.2-2.3-6.8-4c-3.8-1-4.2-1.4-4.2-4.2s3.9-15,8.6-29.7c4.8-14.7,10.9-33.8,13.8-42.6,2.8-8.8,5.4-15.5,5.7-15,.3.5,2.7,7.7,5.3,16,4.1,13.1,19.3,60.5,24.5,76.5,1.8,5.5,1.8,5.5,5.6,5.3,2.1-.1,4.1-.6,4.5-1,.4-.4,7.8-22.2,16.5-48.5,8.7-26.2,16.2-47.4,16.6-47,.7.7,31.5,87.3,32,90,.2.9-4.3,3-12.8,6.2-7.1,2.7-17.5,6.7-23,9-49.9,20.8-100.1,41-101.7,41-.7,0-2.4-1.8-3.6-4-3.8-6.6-14.1-17.9-21.1-23.1-8-5.9-23.4-14-31.6-16.5-4.7-1.4-9.3-1.9-21-1.9h-15s-7.7,3.7-7.7,3.7c-12.3,6-18.8,15.3-18.8,26.6,0,17.3,25.4,34.6,54.3,37,11.4.9,27.1-.4,40.2-3.4,1.3-.3,2.5-.6,3.6-.8,9.6-2.2,12.4-2.9,13.7-1.8.7.6.9,1.7,1.5,3.3.9,2.4,4.5,13.4,8.1,24.4s11.5,35.5,17.7,54.4ZM175.8,457.8c-.8.5-1.5,1-2.2,1.5-5.7,3.9-7.5,5.2-8.8,4.8-.8-.3-1.2-1.2-2.2-2.7l-2.4-3.5,4.8-7.2c6.2-9.3,8.4-17.3,7.7-28.2-1.2-19-12.1-37.7-28-47.9-4.7-3-14.6-7.6-16.3-7.6s-.5,1.6-.5,3.6c0,3.4-.1,3.6-2.8,2.9-1.5-.4-2.9-.9-3.2-1.1-.5-.5-5.1-22.4-5.1-24.4,0-.9,1.7.2,4,2.5,3.4,3.4,4.7,4,8.3,4s5.1-.6,6-1.4c1.6-1.3,1.5-1.5-.4-2.8-3.9-2.7-4.3-5.9-1.5-12,2.8-6.1,3.1-10.5,1.4-18.1-.9-3.9-1.7-5.1-3.5-5.6-3.1-.8-10.7,2.9-13.8,6.5-1.3,1.6-2.7,2.9-3,2.9s-.6-8.1-.6-18,.3-18,.8-18c.4,0,1.9.7,3.2,1.5,4.3,2.4,8.8,1.9,12-1.5,3.6-3.8,4.6-8.8,2.6-13.5-2.5-6-6.1-8.5-12.1-8.5h-3.7l.6-3.8c.3-2.1.6-4.3.6-5,0-.7,1.3-1.9,2.8-2.7,1.6-.8,8-5.6,14.2-10.6,7.8-6.3,14.7-10.7,21.7-14.1,5.6-2.7,10.2-5.1,10.2-5.3,0-.6-9.5.6-13,1.6-1.9.6-7.2,3.2-11.8,5.9-4.5,2.7-8.2,4.4-8.2,3.8s-1.8-.9-5.5-.4c-3,.4-5.5.4-5.5,0s2.1-7.1,4.8-14.8c3.6-10.5,4.8-13.4,5-11.1.7,6.9,4.6,11.5,10,11.5s3.2-.9,2-3.6c-.8-1.8-.8-3.8.2-7.7,1.1-4.6,1-5.8-.3-8.3-.8-1.6-2.7-3.6-4.1-4.3-1.4-.8-2.6-1.8-2.6-2.3,0-1.8,2.1-4.8,3.1-4.2.5.3.9-.2.9-1.1s.5-1.5,1.4-1.1c1.6.6,4.6-6.8,4.6-11.4s2.9-8.9,4-8.9c.3,0,3.3,2.4,6.7,5.2,9.8,8.3,22.2,15.2,24,13.4s.6-17.8-1.2-26.1c-.9-4.4-3-11.9-4.5-16.7-2.2-7-2.6-8.9-1.5-9.8,1-.8,1.4-.1,2,3.2,1.4,8.8,6.9,14,17.1,16.4,3.9.9,6,1,7.7.2,2.2-1,2.3-1.4,1.5-7.6-1.1-9-1.4-9.7-6.9-15.8-5.2-5.7-5.8-7.8-3.4-10.9,1.9-2.6,1.9-3.4-.2-3.5-1.1,0,1.4-3,7.2-8.5,4.9-4.6,9.3-8.4,9.8-8.4s.2,1.2-.6,2.8c-4.3,8.5-4.6,22.6-.7,30.7,2.9,6,10.2,13.1,15.6,15.2,3.5,1.4,5.1,1.5,8.6.6,5.4-1.3,21.2-10.6,23.8-14,8.8-11.2.6-31.9-15.5-39.2-5-2.3-15.9-4.2-19.2-3.4-1.3.3-2.3.2-2.3-.4,0-1.1,7.4-6.2,8.9-6.2s1.3-.6,1.8-1.4c1-1.7,15.2-10.9,25.1-16.2l7.3-3.9,3.6,4.5c6.4,7.9,23,24.4,29.2,29,3.3,2.4,6,4.8,6,5.1,0,.4-2.3,2.4-5.2,4.5-2.9,2.1-8.3,6.2-12,9.2l-6.8,5.4-2.2-2c-2.3-2.1-6.8-4.6-10.3-5.7-2.1-.6-2.1-.6-.8,4.6.8,2.9,1.4,7.3,1.4,9.8,0,4.3-.5,5.1-7.3,12.5-4.4,4.8-7.8,7.6-8.4,7.2-.6-.4-.9-1.3-.6-2.1s0-1.7-.5-2c-.6-.4-1.1,0-1.1.9s-.6,1.3-1.8.9c-1.3-.5-1.2-.1.5,1.6,1.2,1.2,2.2,2.7,2.2,3.3s-2.9,5-6.3,9.7c-8.3,11.3-20.6,31.2-23.6,38.1-7,16.1-11.1,26.8-14.1,36.7l-3.3,11-4.6-2.1c-3.8-1.8-6.5-2.1-15.6-2.1s-11.5.2-17.5,3.1c-21.1,10-29.6,36.4-17.2,53,4.9,6.5,11.1,9.8,17.1,9,12.8-1.6,23.6-14.3,21.6-25.1-1.7-9-12.3-14.2-20.4-10-5,2.6-5.8,10.4-1.5,14.3,3,2.7,5.1,2.8,7.6.6,3.3-3,2.2,1.7-1.2,5.4-10,10.6-23.3-1.8-19-17.7,1.8-6.6,6.1-11.5,13.7-15.2,5.7-2.8,7.6-3.2,14.7-3.3,5.6,0,9.8.6,13.4,1.9,5.1,1.9,5.3,2,5,5.5-.3,3.2-.6,3.6-3.4,3.9l-3.2.3.5,5.8c.4,4,0,7.5-1.2,11.4-1.7,5.3-1.7,10.2,0,13.9.7,1.5.2,1.8-4.2,1.8s-8.3,2-8.3,7.2,2.8,7.3,7.2,6.5l3.3-.6-2.9,2.2c-6.4,4.8-10.6,9-10.6,10.7s-2.1,2.6-7,4.5c-3.8,1.5-8.6,3.8-10.5,5.2-4.8,3.2-5.2,3.1-2-.8,2.5-3,2.6-3.6,1.9-8.8-1.1-7.9-1-12.1.5-13,1.6-1,1.6-2.1,0-3.2-3.8-2.4-12.9,1.2-14.6,5.8-.6,1.5-1.3,6.4-1.5,10.8-.3,4.4-1.2,9.8-2.1,11.9-.9,2.1-1.4,4.1-1.2,4.3.4.4,8.7-1.9,12.6-3.5.8-.3-.2,1.5-2.2,4-4.9,6-4.7,6.7.5,2.4,5.9-4.8,15.7-9.1,31.5-13.7.6-.2,1.2-.4,1.7-.5,10.2-3,12.1-3.6,12.4-3.1,0,.1,0,.3,0,.5v.2c0,.5-.8,1-1.8,1-3,0-11.6,4.6-14.9,7.9-4.3,4.3-7.8,10.4-9.9,17.6-2.4,7.9-2.4,26.1-.1,32.2,1.4,3.6,1.4,4.2.2,4.2s-1.2.6-.9,1.5c.3.8,1,1.4,1.6,1.2.6-.1,2.5,2.3,4.4,5.3,11.8,19.4,27.5,26.9,41.3,19.7,4.2-2.2,5.6-2.5,6.2-1.5.5.7,2.9,5,5.4,9.6,5.3,9.6,5.3,9.7-3.8,14.3-8.1,4.1-12.3,5.4-32.5,10-6.8,1.5-10.6,3-14.5,5.8ZM380.4,574.9c-3.3,2.9-3.9,3.1-11.2,2.9-13.1-.3-14.2-.6-15.7-4.2-2-4.7-8.2-10.3-13.4-12.1-8.8-3-17.6-1.7-24.4,3.7l-3.8,3-10-3.1c-10.9-3.4-13.5-5.6-13.5-11.5s-.4-3.1-3.2-3.3c-2.4-.2-3.9.3-5.8,2.3l-2.6,2.6-4.4-1.7c-2.4-.9-4.7-2.1-5-2.7-.3-.5-.7-6-.8-12.1-.2-9-.6-12.3-2.6-17.2-3.1-8-8.8-16.5-11.6-17.6-1.3-.5-2.4-1.6-2.4-2.5,0-3.9-5.7-13.3-11.6-19.2-5.2-5.2-7.4-6.5-12.9-8.2-3.7-1.1-7.1-2-7.6-2s.9,1.9,3.2,4.2c5.6,5.8,10.5,16,12,24.9,1.3,7.8.8,21.5-.9,26.1l-1.1,2.8-5.8-4.3c-3.2-2.4-6-4.5-6.3-4.8-.3-.3-3.4-2.8-7-5.7-7-5.6-28-26.3-26.6-26.3s6.1,4.3,21.2,17.5c4.4,3.9,9.8,8.5,12,10.3l3.9,3.3,2.1-2.5c3.3-3.8,4.9-14.3,3.4-21.9-2.4-12.3-8.7-21-18.8-25.9-6.2-3.1-7.4-3.3-16.7-3.3-6.6,0-12.3.7-16.8,1.9-6.6,1.8-6.8,1.8-8.2,0-.8-1.1-1.1-2.2-.7-2.6,1.6-1.6,18.7-6.8,30.2-9.3,17.6-3.8,21.3-5,29.8-9.6,7.7-4.1,10.6-4.8,5.5-1.2-8,5.7-26.3,12.8-37.8,14.8-5.1.9-6.1,1.5-4.4,2.5,1.6,1,7.2,1.2,8.2.2s2.7-.8,5.1-1c8.8-.5,25.1-6.6,32.3-12.1,3.2-2.5,3.4-2.5,4.8-.7,2,2.6,1.9,2.9-1.6,5.8-8,6.7-11.6,8-23.9,8.6-11.1.5-11.4.6-7,1.7,4.6,1.2,22.1,5.6,30,7.5,3.9,1,5.1.9,9-1,2.5-1.2,5.2-2.7,6.1-3.3,1.4-1,2.1-.7,4.5,2.2,2.8,3.3,2.8,3.5,2.5,14.5-.4,14,.9,20.4,6.5,32.4,3.8,8.1,5.6,10.6,12.9,17.7,9.1,8.9,18,14.1,29,16.8,6.3,1.6,18.5,2.1,18.5.7s-1.9-1.9-4.2-3.2c-21.9-12.2-33.3-22.9-41.3-38.9-2.7-5.3-6.2-19.6-5.2-20.7.4-.3,3.3,1.7,6.6,4.6,4.1,3.6,6.2,6.2,6.6,8.4,2.4,11.3,12.6,24.9,24.9,33.1,19.3,12.8,34.9,15.1,47.7,7l3.8-2.4,12.7,3.2,12.7,3.2-.4,5.7c-.5,7.1-5.5,17.5-10.4,21.8ZM312.8,695c5.2.9,14.6.4,20.7-1.2,9.6-2.5,18.7-11.2,22.2-21.2,2.4-7,2.4-25.2,0-31.6-4.1-10.8-14.1-17.8-27-19.1-14.8-1.4-25.7,1.8-33.7,10-8.1,8.3-11.8,23-9.1,36.1,3.1,14.8,12.7,24.4,26.9,26.9ZM229.1,695c5.6,1.2,15.9.5,22.6-1.5,10.1-3,18.7-12.1,21.9-23.2,2.2-7.7,1.6-24-1.3-30.3-4.7-10.4-13.4-16.5-25.4-17.8-19.3-2.1-33.4,4.3-40.7,18.3-2.3,4.4-2.7,6.5-3,16.6-.3,10,0,12.2,1.9,17.5,3.9,10.4,13.1,18.2,24.1,20.5ZM319,341.4c-24.1,3.9-43.4-.3-55.5-12.1-8.4-8.2-9.2-19.7-2.1-31.5,4.4-7.4,12.9-11.8,24.5-12.6,18.4-1.3,31.6,4.8,49.2,22.6,6.3,6.4,13.5,14.4,15.8,17.9l4.3,6.3-3.4,1.4c-5.1,2.1-22,6.3-32.8,8ZM599.5,326.9c-14.6,2.7-26.9-.7-42.1-11.5-11.6-8.2-33.3-33.6-30.3-35.4.8-.5,6.3-2.2,12.4-3.9,35.7-9.8,61.7-7.9,76.7,5.7,9.7,8.7,10.4,22.2,1.9,34.6-3.7,5.4-9.9,8.9-18.5,10.5ZM336.2,687.4c-3.5,2.5-5.3,3-11.9,3.3-6.7.3-8.5,0-13-2.1-10-4.8-14.3-14.2-14.3-31.5s1.9-19.8,7.2-25.1c8.1-8.1,24.5-8.2,33.7-.3,7.1,6.1,10.5,21,8.1,36.3-1.4,9.5-4.6,15.7-9.9,19.4ZM248.2,690c-11.9,3.3-23.4-.6-28.9-9.8-4.2-7.2-5.6-14.4-5-26.1.6-11.9,2.7-17.9,7.7-22.4,4.4-4,9.2-5.6,16.5-5.6,16.9,0,25.5,11.2,25.5,33s-5.6,28.1-15.8,31ZM108.7,693.4c1.2,1.2,19.6.2,20-1.1.2-.7-.9-1.5-2.4-1.9-1.6-.4-3.2-1.2-3.6-1.8-1-1.5-1-51.2,0-50,.5.5,5.7,12.6,11.7,26.8,5.9,14.2,11.4,26.5,12,27.4,1.6,2.2,4.2,1,5.5-2.4,1-2.5,5.1-12.3,16.6-39.6,2.5-5.9,5-10.8,5.4-10.8s.8,10.8.6,24.2l-.3,24.2-3.2,1.5c-1.8.8-3.1,2-2.9,2.5.5,1.5,23.9,1.3,24.4-.2.2-.7-.9-1.5-2.4-1.9-1.3-.3-2.3-.5-3-1-2.3-1.6-2.3-6.6-2.3-28.7v-4.1c0-22.5,0-27.4,2.3-29.1.7-.5,1.7-.7,2.9-1,1.5-.4,2.7-1.3,2.7-2.1,0-1.2-1.8-1.4-9.6-1.1l-9.7.3-6.2,14.5c-3.4,8-8.4,19.8-11.1,26.2-2.7,6.5-5.2,11.8-5.6,11.8s-5.7-11.9-11.9-26.4l-11.3-26.4h-9.8c-5.7,0-9.8.3-9.8.9s1.7,1.8,3.8,2.7l3.8,1.8.3,28.1c.2,16.2-.1,29.2-.7,30.6-.6,1.6-2,2.8-4,3.2-3,.7-3.7,1.5-2.4,2.9ZM108,713c0,2,.7,2,289,2s289,0,289-2-.7-2-289-2-289,0-289,2ZM490.8,686.2c2.3,6.8,2.9,7.8,5,7.8s3-.5,9.2-18.5c9.8-28.3,11.4-32.5,12-32.5s4.5,11.5,9.1,25.5c8.2,24.6,8.6,25.5,11.1,25.5s2.9-.9,9.3-19.2c11.6-33.3,15.6-44,16.8-45.5.6-.8,2.7-2,4.5-2.8,6-2.5,3.9-3.5-7.7-3.5s-11,.3-11,1.4,1.3,1.7,3,2.1c2.1.5,3,1.3,3,2.6,0,2.1-13.9,46-15,47.2-.4.4-1.4-1.1-2.3-3.5-1.4-3.7-13.3-41.1-15.2-47.6-.5-1.8-1.3-2.2-3.3-2-2.5.3-3,1.6-11.5,27.1-4.9,14.8-9.2,26.5-9.6,26-.4-.5-3.1-8.5-6-17.8-2.9-9.3-6.1-19.4-7.2-22.3-2.6-7.2-2.4-8,1.6-9.7,6.4-2.7,4.1-3.5-9.5-3.5-10.4,0-13,.3-13,1.4s1.3,1.7,2.9,2c1.6.4,3.5,1.4,4.3,2.3.8.9,4.9,12.5,9.2,25.7,4.3,13.2,8.9,27.5,10.3,31.8ZM367,692.8c0,1.7,20.1,1.3,20.7-.4.2-.6-.9-1.5-2.4-1.8-1.3-.3-2.3-.6-3.1-1.1-2.2-1.7-2.2-6.3-2.2-25.1v-.9c0-13.4.3-24.4.8-24.3.4,0,4,4.2,8,9.2,31.5,40,35.9,45.2,38.3,45.2h2.4l.5-33c.5-32,.6-33,2.5-33.4,2.3-.4,4.5-2,4.5-3.3s-4.7-.9-10.5-.9c-11.1,0-13.1,1-7.1,3.5,2,.8,3.6,2.3,4,3.7.8,3,.6,42.7-.2,43.2-.3.2-9.7-11-20.9-24.9l-20.3-25.3h-7.5c-5.6-.1-7.5.2-7.5,1.2s1.5,1.8,3.2,2.3l3.2.9v60.9l-3.2,1.5c-1.8.8-3.2,2.1-3.2,2.8ZM558.7,693.3c.4.4,5.3.7,11,.7,8.2,0,10.3-.3,10.3-1.4s-1.3-1.9-3-2.4c-1.7-.6-3-1.7-3-2.5,0-1.4,3.7-11.8,6.1-17l1.3-2.8,12,.3,12,.3,3.3,9.4c1.8,5.2,3.1,10,2.9,10.7s-1.9,1.5-3.6,1.9c-1.7.4-2.9,1.2-2.7,1.8.3.8,4.6,1.2,13,1.4,10.2.2,12.7,0,12.7-1.1s-1.7-2.1-3.9-2.9c-.8-.3-1.4-.5-1.9-.7-2.5-1.3-3.7-5.1-16.3-40.1-5-14-9.5-25.9-9.9-26.3-1.4-1.6-5.9.5-6.9,3.2-.5,1.5-3.5,8.7-6.7,16.2s-7.2,17.3-9.2,22c-9.9,24.1-10.7,25.5-15.4,26.5-2.9.6-3.6,1.5-2.2,2.8ZM180.5,219.9c3.6,1.1,14.9,1.3,15.9.4.4-.4-.3-2.2-1.4-4-2.1-3.4-1.3-4.7,1.1-1.8.7.9,2.2,2,3.3,2.6,1.9,1,1.9.8,1.3-3.6-.7-5.4-.3-5.8,1.8-1.6.9,1.6,1.9,3,2.4,3s2.3-2.9,4.1-6.5c3.2-6.2,3.3-6.8,2.6-14.4l-.7-7.9,3.8-3.2c2.1-1.7,4.8-3.4,6.1-3.7,1.2-.3,2.2-.9,2.2-1.2,0-1-8.1-6.1-10.8-6.8-6.4-1.6-16.1,3.9-19.3,11-2.3,5-2.4,9.2-.5,17.2,1.9,8,1.9,8.1-1,4.7-1.4-1.6-4.8-4.5-7.6-6.3-4.4-2.8-6-3.3-11.3-3.3-10.9,0-18.5,6.5-18.5,15.7s2,9.8,2.7,7.9c.7-2,7.9-5.2,11.6-5.2s4.2.8,6.3,3c1.6,1.7,4.3,3.4,5.9,3.9ZM529,74.5c6.8,4.3,5.2,4.3-7-.1-17.7-6.4-42.1-11.6-60.5-12.9-5.5-.4-10.5-1.1-11-1.5-.6-.5-2.8-.4-5,0-2.2.5-8.2.9-13.5,1h-9.5s0-24.2,0-24.2l5.8.7c8.6,1,9.1,1.3,5.8,4.1-3.4,2.9-4.2,6.2-2.5,10.3,1.6,3.8,5.8,5.7,9.1,4.2,2.7-1.2,2.9-3.6.8-10.5-.8-2.7-1.3-5.1-1-5.4,1.4-1.4,30.8,7,47,13.6,12,4.8,32.8,15.2,41.5,20.7ZM330.6,86.3c-7.4,3.7-13.6,6.7-13.8,6.7s-1.2-4.4-2.1-9.8c-1-5.4-3.7-15.6-6.1-22.8-2.4-7.2-4-13.3-3.7-13.7.4-.4,2-1,3.7-1.4l3.1-.6-1,4.9c-2.4,11.7,3.4,20.7,15.3,23.8,4.4,1.2,6,1.2,8.3.2,2.8-1.2,2.8-1.3,2.2-7.6-.8-7.6-1.5-9.1-7.2-15.3-5.9-6.4-5.9-9.2,0-10.7,8.3-2.1,9.2-1.8,9.9,3.8,1.5,12.8,13.3,25.1,24,25.1s13.2-4.5,16.8-9.1c5.8-7.3,7-15.9,3.3-23.1l-1.4-2.8h9.3l-.7,8.4c-.6,6.7-.4,9,.9,11.5.9,1.7,1.6,3.2,1.6,3.5s-1.8.7-4.1,1c-4.8.7-7.9,3.1-7.9,6.3s-1.1,3.4-13.6,6.9l-10.1,2.8-3.4-2.1c-1.8-1.2-4.4-3.2-5.8-4.7-1.3-1.4-2.8-2.6-3.2-2.6s-.8,3.3-.8,7.3v7.3l-13.4,6.7ZM641,692.6c0,1.1,2.6,1.4,13,1.4s13-.2,13-1.5-1.7-1.9-4-2.5l-4-1.1v-25.9l9.1-16.3c10.4-18.5,11-19.4,15-20.3,1.6-.3,2.9-1.2,2.9-1.9s-2.8-1.3-11-1.4c-8.7,0-11,.2-11,1.3s1.4,1.7,3.1,2c1.7.4,3.3,1.2,3.5,1.9.6,1.5-12.7,26.9-14.1,26.9-1.2,0-15.5-24.2-15.5-26.3,0-.8,1.3-2,3-2.7,6.2-2.3,3.2-3.2-10.6-3.2-9.7,0-13.5.3-13.2,1.1.2.6,1.7,1.6,3.3,2.1,4.3,1.4,4.9,2,10.1,11,2.6,4.5,7.1,12.2,10,17.2l5.3,9v12.1c0,13-.2,13.7-5.3,14.9-1.5.4-2.7,1.3-2.7,2.1ZM213,407.2c-3,2.4-7.5,2.2-13.6-.6-10.2-4.8-17.4-13.6-20-24.4-2.1-8.9-1.6-25.1.8-25.1s.9,1,.9,2.3c0,4,11.6,15.4,13.7,13.4.3-.3-.7-2.8-2.1-5.5-3.3-6.6-3.4-12.9-.1-19.9,1.3-2.9,2.9-5.2,3.5-5.2s.5.9-.4,2.2c-1.5,2.3-1.9,4.9-1.7,10.6,0,2.6,1.1,4.3,4,7.1,4.5,4.3,5.1,6.2,3.2,10.7-.8,1.9-1.1,4.8-.8,6.9.6,3.5,5,9.3,7.1,9.3s2.6,3.7,4.4,8.2l3.4,8.2-2.2,1.8ZM235.2,135.3c-2.7,2.4-9.3,2.1-12.7-.5-8.5-6.7-8.6-25.4-.3-31.3,5.8-4.1,19.4.1,24.8,7.6,3.9,5.3,4.5,8.9,2.4,13.3-1.6,3.4-6.5,7.1-7.7,5.9-.9-.9-4.7.7-4.7,2s-.8,2-1.8,2.9ZM268.9,107.1c5.5,3.5,6.1,3.5,6.1.3s.4-2.3.9-2c.5.3.7,1.6.4,2.8-1,4,1.4.6,3.1-4.5,3.1-9.2,1.1-18.8-4.9-23.6-3.9-3-12.9-5.5-17.8-4.8-4.6.6-8.2,3.8-9.3,8-.6,2.6-.5,2.8,1.9,2.1,4.1-1,7.2,1.7,9,7.9,1.9,6.6,4.6,10.1,10.5,13.8ZM672,764.3c1.9.6,6.1-.3,7.9-1.7,1.1-.8,1.5-.8,1.8.1.2.7,1.3,1.2,2.3,1.2,1.8,0,1.9-1,1.9-19.6v-19.6l-2.2.3c-2,.3-2.3,1-2.5,6.1-.3,5.5-.4,5.8-2.5,5-3.5-1.2-9.9-.5-12,1.4-3.1,2.8-4.7,6.8-4.7,11.8,0,7.5,3.5,12.8,10,14.8ZM367.5,764.1c2.4.7,6.5,0,8.3-1.5,1-.8,1.6-.7,2.2.3.4.7,1.5,1.1,2.4.7,1.4-.5,1.6-3.1,1.6-19.6s-.4-19-.9-19c-3.2,0-4.1,1.4-4.1,6.6v5.4l-2.8-.8c-9.5-2.6-16.2,2.8-16.2,13s3,12.8,9.5,14.8ZM611,763.7c4.7,1.6,5.8,1.6,10.8-.7,3.1-1.4,4.7-2.9,5.8-5.5,1.8-4.4,1.9-10.6.1-14.9-3.5-8.3-16-9.8-22.1-2.6-2.2,2.6-2.6,4.1-2.6,9.3,0,7.6,2.7,12.4,8,14.3ZM276.3,763c9.8,4.9,18.7-1.5,18.7-13.5s-1-7.6-4.3-11.2c-1.7-1.9-3.1-2.2-8.2-2.2-9.3,0-13.5,4.2-13.5,13.5s2.4,10.9,7.3,13.4ZM160.7,381.5c2.5,3.5,4.8,6.3,5,6.1.2-.2-.3-3.4-1.2-7-2.8-11.9-1.7-23.6,3.1-34.4l2.3-5.3-2.2.7c-7.7,2.3-11.7,6.6-11.7,12.5s0,3-5.8,3c-6.2,0-14.2,3-14.2,5.2s1.9,1.9,4.3,2.6c6,1.8,14.9,9,20.4,16.7ZM318.5,763.6c4.2,1.8,6.5,1.7,10.9-.5,3.1-1.6,3.9-1.7,4.3-.5.3.8,1.5,1.4,2.7,1.4,2.1,0,2.2-.3,1.8-10.8-.5-16.2-1.6-17.8-12.4-17.7-5.2,0-9.5,2.3-10.8,5.7-.6,1.7-.4,2.4,1.3,3,1.6.6,2.5.2,4-1.8,1.5-2.1,2.7-2.5,6.3-2.5s4.6.3,5.5,2.7c1.3,3.3.4,3.9-6.5,4.8-2.8.4-6.5,1.5-8.2,2.5-5.5,3.3-4.8,11,1.2,13.6ZM402,752.1c0,11.9,0,12.1,2.2,11.8,2.2-.3,2.3-.7,2.5-12.1l.3-11.8h8.9v12.1c0,11.9,0,12.1,2.2,11.8,2.2-.3,2.3-.7,2.5-12.1l.3-11.8h2.5c1.8,0,2.5-.5,2.5-2s-.7-2-2.6-2-2.5-.4-2.2-2.8c.2-2.2,1-2.8,3.3-3.2,2.1-.4,3.1-1.2,3.3-2.8.3-2-.1-2.2-3.5-2.2-5.4,0-8.1,2.2-8.5,6.8-.3,3.6-.4,3.7-4.3,3.7s-4-.2-4-2.5.6-2.6,3-3c2.1-.4,3.1-1.2,3.3-2.8.3-2-.1-2.2-3.3-2.2-5.4,0-7.4,1.5-8.1,6.2-.4,2.8-1.2,4.3-2.5,4.6-2.6.7-2.4,4.2.1,4.2s2,.7,2,12.1ZM147.5,763.9c4.5,1.4,5.7,1.2,9.8-.8,3.2-1.6,3.8-1.7,4.6-.4.5.8,1.7,1.3,2.7,1.1,1.7-.3,1.8-1.3,1.6-10.8-.4-16.5-.7-17-11.4-17s-10.9,2-12,5.9c-.8,3.2,3.3,3.6,5.6.6,2.5-3.3,10-3.6,11.7-.4,1.8,3.4.5,4.7-5.8,5.4-3.3.4-7.3,1.5-9.1,2.6-2.6,1.6-3.1,2.5-3.1,5.7,0,4.7,1.6,7,5.5,8.1ZM568,753.8c3,9.8,3.2,10.3,5.7,10,2.3-.3,2.8-1.1,4.8-8.3,1.2-4.4,2.4-8.7,2.7-9.5.5-1.4,1.9,2.7,4.8,13.8,1,3.8,1.4,4.3,3.8,4,1.8-.2,2.9-1.1,3.4-2.8.4-1.4,2.3-7.6,4.2-13.8l3.5-11.2h-2.3c-2.5,0-3.4,1.6-6.1,11.5-.9,3.3-2,6.4-2.4,6.8-.4.5-1.8-3.5-3.1-8.8-2.2-9.1-2.4-9.6-5-9.6s-2.8.5-4.9,8.2c-.2.8-.4,1.5-.6,2.1-1.8,6.8-2.3,8.6-2.7,8.6-.2,0-.4-.4-.6-1-.4-.8-1.8-5.2-3.1-9.8-2.1-7.4-2.6-8.2-4.7-8.2s-2.8.4-1.4,4.6c.5,1.6,2.3,7.5,4.1,13.2ZM205.7,763.4c6.6,2.8,13.7.6,16.8-5.4,1.5-2.9,1.5-3-.9-3s-3.6,1.1-5,2.5c-3.5,3.5-7.7,3.3-11-.6-4.6-5.4-3.8-5.9,7.9-5.9h.7c6.1,0,8.8,0,9.6-1.2.6-.9.2-2.6-.7-5.6v-.4c-1.5-5-5.6-7.8-11.5-7.8s-10.4,2.3-12.1,6.5c-3.4,8.1-.4,18,6.3,20.8ZM436,763.3c5.8,3,13.8.4,16.7-5.4,1.1-2.2,1-2.4-1.3-2.7-1.8-.2-3.1.5-4.5,2.2-2.6,3.3-7.9,3.5-10.8.4-1.1-1.2-2-2.5-2-2.9s-.3-1.4-.6-2.3c-.5-1.4.7-1.6,10-1.6h10.6v-2.5c0-3.9-2.5-9.1-5.3-10.9-1.4-.9-4.7-1.7-7.4-1.7-8.1-.2-12.1,3.9-13,13-.4,4.8-.1,6.2,1.9,9.2,1.3,1.9,3.9,4.3,5.8,5.3ZM484,763.7c6.2,2.2,13.5-.3,15.9-5.5,1.5-3.1,1.4-3.2-1.3-3.2s-3.4,1.1-4.7,2.5c-1.5,1.5-3.5,2.5-5.2,2.5-3.4,0-7.8-3.9-7.8-7s.6-2,10.1-2h10.1l-.5-4.6c-.8-6.8-4.7-10.5-11.6-10.6-8.8-.2-13.1,4.5-13.1,14.3,0,6.9,2.9,11.8,8,13.6ZM186.3,443c9.7,4.4,21.7.2,21.7-7.7s-.4-2.1-3.9-1.6c-3.8.5-4.1.3-7.5-4.5-3.1-4.4-4.3-5.2-9.4-6.6-7.5-2.1-7.9-2.1-8.8.6-2.4,7.3,1.5,16.9,7.9,19.8ZM364.7,570.5c-.6,4,0,4.2,5.4,2.4,10.9-3.7,15-17.8,7.4-25.5-2.5-2.5-6.5-3.2-6.5-1.2s-3.1,4.8-5,4.8c-3.7,0-4.3,2.5-2.5,9.5,1,3.8,1.5,8,1.2,10ZM507,750.1c0,14,0,14.1,2.2,13.8,2.1-.3,2.3-.8,2.5-10.3.2-8.8.5-10.2,2.4-11.8,2.5-2.1,7.2-2.3,8.8-.4.6.8,1.4,6.2,1.8,12,.6,9.5.9,10.7,2.5,10.7s1.8-1,1.8-11.8-.7-16.2-8.9-16.2-6.3.5-7.1,1.2c-1.1,1-1.4,1-1.8,0-.2-.7-1.3-1.2-2.4-1.2-1.8,0-1.9.9-1.9,14.1ZM369.8,53.5c-8.1,8.8-18.6,2.9-21.3-11.9-.8-4.7.2-5.6,6.6-5.6,4.5,0,4.6,0,4.2,2.9-.6,3.7,1.1,6.7,4.7,8.6,3.2,1.6,7.4.8,8.4-1.7.3-.7.6,0,.6,1.4,0,1.8-1.1,4-3.2,6.3ZM226.7,168.6c1.4,2.1,1.8,2.3,3,1.1.8-.8,1.6-3,2-5,.8-4.8-1.3-8-7.4-11.1-2.6-1.3-6.2-3.8-8-5.5-1.8-1.7-3.7-3.1-4.2-3.1-1.6,0-1.2,11.7.5,15,1.2,2.2,2.8,3.3,7,4.5,3.6,1.1,6.1,2.4,7.1,4.1ZM602.4,662.2c-.6,1-18.4,1.1-18.4,0,0-2.1,9.5-25.2,10.1-24.5,1.3,1.3,8.8,23.6,8.3,24.5ZM179.4,760.3c1.3,3,2.1,3.8,3.8,3.5,1.9-.3,3-2.4,6.9-12.8,2.6-6.9,4.8-13.1,4.8-13.8,0-.7-.9-1.2-2.2-1.2-2,0-2.7,1.3-5.6,9.2-1.9,5.1-3.7,9.6-4,10s-2.2-3.8-4.1-9.2c-3.2-9.4-3.6-10-6.2-10s-2.7.2-1.7,2.8c.6,1.5,2.3,6.1,3.9,10.3,1.5,4.1,3.5,9.2,4.4,11.3ZM620,759c-6.1,3.2-12-1.2-12-9s2.8-10,7.9-10,6.5,1.9,7.5,6.7c.9,4.2-1,11-3.4,12.3ZM286.8,758c-4.2,4-10.8,1.5-12.4-4.5-1-4,.3-9.8,2.7-11.7,1.2-1,3.6-1.8,5.4-1.8s3.9.8,4.8,1.8c3.6,4,3.4,12.7-.5,16.2ZM258,762c.9,1.6,1.9,2,4.7,1.8,4.4-.4,5.4-2.4,1.8-3.8-2.5-1-2.6-1.2-2.6-10.5s.1-9.5,2-9.5,2-.7,2-2-.7-2-2-2-2-.7-2-4.5-.4-4.5-1.2-4.5c-2.4,0-3.6,1.5-4.3,5.2-.4,2.2-1.3,3.8-2.1,3.8-2,0-1.7,2.8.5,3.9,1.6.9,1.9,2.2,1.9,10.5,0,5.2.6,10.4,1.2,11.6ZM538.6,761.8c2.1,2.9,9.5,3.3,8.8.4-.2-1-1.5-2.2-2.7-2.8-2-.9-2.2-1.8-2.5-10.1-.3-8.9-.2-9.2,2-9.5,3.1-.4,3.6-3.6.6-4-1.9-.3-2.4-1-2.6-4.6-.2-2.3-.6-4.2-1-4.2-2.1,0-4.2,3-4.2,5.8s-.5,3.1-1.5,3.1-1.5.9-1.5,2,.7,2,1.5,2c1.2,0,1.5,1.8,1.5,9.8s.4,10.3,1.6,12ZM679.7,757.4c-3.5,5.3-10.9,2.2-12.3-5-1.3-7,1.8-12.3,7.2-12.3s6.8,3.5,6.8,10-.7,5.8-1.7,7.4ZM374.8,758c-2.7,2.5-5.9,2.6-8.9.2-1.7-1.4-2.4-3.2-2.7-7.2-.6-7,2-10.9,7.3-10.9s6.5,2.9,6.5,10.2-.4,6.1-2.2,7.8ZM113,762.5c1.3,1.6,9,2.1,9,.6,0-2.2-1.3-3.9-2.6-3.4-2.1.8-3.4-3.8-3.4-12.2s.2-7.4,2.2-7.7c3.1-.4,3.6-3.6.6-4-1.9-.3-2.4-1-2.6-4.6-.2-2.3-.7-4.2-1.2-4.2-2,0-3.7,3-3.2,5.5.4,2.1,0,2.7-1.6,3.2-2.6.7-2.9,4.3-.4,4.3,1.6,0,1.8,1.2,1.9,10.5,0,6.7.6,11,1.4,12ZM125.7,763.3c.4.4,1.4.7,2.4.7,1.5,0,1.8-1.4,2.1-9.9.4-11.2,1.4-13.1,6.5-13.1s3.4-.3,3.4-2.4c0-3.2-3.1-4.2-7-2.2-1.6.8-3,1.1-3,.6s-1.1-.9-2.5-.9h-2.5v13.3c0,7.3.3,13.6.7,14ZM459.7,763.3c.4.4,1.5.7,2.5.7,1.6,0,1.8-.9,1.8-8.8,0-10.7,1.2-13.6,6-14.2,2.6-.4,3.5-1,3.8-2.6.4-2.8-3.3-3.8-7-1.9-1.5.8-2.8,1-2.8.5s-1.1-.9-2.5-.9h-2.5v13.3c0,7.3.3,13.6.7,14ZM634,750.1c0,14,0,14.1,2.2,13.8,2.1-.3,2.3-.9,2.8-10.6.5-11.1,1.1-12.2,6.1-12.2,2.4,0,3.9-1.6,3.9-4s-5.2-2.1-7.6-.6c-1.3.9-2.4,1.1-2.4.5s-1.1-1-2.5-1h-2.5v14.1ZM244.8,537.4c.3.3,0,.5-.6.5-2.1,0-2.3-2-1.1-9.3,1-6.2,1-8.6-.4-16.1-1.9-10.4-7.8-23.1-14-30.2-2.6-2.9-3.3-4.3-2-3.6,3.6,1.9,10.7,10.6,14.1,17.3,6,12,7.9,26.1,4.9,36.2-.8,2.5-1.1,4.9-.8,5.2ZM351.5,542c-1.1.5-2.2.8-2.5.8-17-2.1-26.2-6-35.1-14.9-4.1-4.1-10.8-14.1-10.8-16.2,0-2,1.9-.3,4.7,4,9.1,13.9,19.2,19.8,43.2,24.9,2.3.5,2.4.6.5,1.3ZM229,726v38.1l2.2-.3c2.2-.3,2.2-.5,2.5-19.1l.3-18.8h-5ZM652,745.2v19l2.2-.3c2.2-.3,2.2-.5,2.5-19.6.2-11.5-.1-19.2-.7-19.2-4,0-4.1.6-4.1,20.2ZM163.5,327.1c1,1.6,4.3,1,6.8-1.3,2.2-2,2.5-3.3,2.9-10.5.2-4.5.3-8.2.2-8.2s-1.8.7-3.8,1.5c-4.6,1.9-7,5.5-6.2,9.2,1.3,6.2,1.4,7.3.5,7.8-.5.3-.7,1-.4,1.5ZM232.5,127.9c4.1,1.1,7-1.5,6.8-6.3-.1-4.5-.7-5.2-5.4-7.6-3.3-1.7-4.2-1.8-5.7-.7-4.3,3.2-1.5,13.1,4.3,14.7ZM389.7,763.4c.4.4,1.4.6,2.2.4,1.3-.2,1.6-2.6,1.8-14l.3-13.7h-5.1v13.3c0,7.3.3,13.6.7,14ZM126.2,283.3c-3.2,2.9-5.4,1.7-6.7-3.7-.4-1.6-1.3-3.1-2.1-3.4-.8-.3-1.4-1.8-1.4-3.4,0-2.7.3-2.9,3.8-2.9s4.5.7,6,2.3c2.7,2.9,2.9,8.7.3,11ZM330.1,758.2c-3.8,3.9-11.1,2.4-11.1-2.2s2.2-3.6,8.8-4.5l5.3-.7-.7,2.9c-.4,1.6-1.4,3.6-2.3,4.5ZM159,757.2c-2.2,2.8-5.6,3.8-8.9,2.6-6-2.2-2.5-7.4,5.6-8.4,4.8-.6,5.2-.5,5.2,1.3s-.9,3.1-2,4.5ZM218,745.3c0,1.4-1.2,1.7-7.5,1.7s-7.4-.2-6.9-1.8c1.3-3.6,3.6-5.2,7.3-5.2s7,2.3,7,5.3ZM496,746.4c0,.3-3.4.6-7.5.6-8.2,0-9.1-.8-5.5-4.8,2-2.2,7.2-3,9.6-1.4,1.1.7,3.4,4.6,3.4,5.7ZM338.9,572.6c-1.1.6-1.8,1-2.5,1.1-1.1.2-2.3,0-5.6-.9h-.5c-2.3-.7-4.2-1.5-4.2-1.9,0-1.2,7.8-4,11.3-3.9,1.8,0,4.4.7,5.7,1.4,2.4,1.3,2.4,1.4.5,2-1.1.3-3.2,1.3-4.6,2.1ZM448,745.3c0,1.4-1.1,1.7-7,1.7s-8.3-.7-5.4-4.8c3.1-4.4,12.4-2.1,12.4,3.1ZM284.4,59c3,4.5,2.5,4.9-2.2,1.6-4.6-3.3-4.8-3.6-3.2-4.6,2.2-1.4,2.5-1.3,5.4,3ZM389,728.5c0,2,.5,2.5,2.5,2.5s2.5-.5,2.5-2.5-.5-2.5-2.5-2.5-2.5.5-2.5,2.5ZM289.8,57.8c1.2,5.4,0,5.4-2.6,0-1.7-3.6-1.8-4.3-.5-4.6,2-.5,2.1-.3,3.2,4.6ZM126.9,378.9c1.2,1.6,1.7,3.1,1.3,3.3-1.1.5-4.3-.2-4.3-1.1,0-.4-.3-1.7-.6-2.9-.9-3.2,1.1-2.8,3.6.7ZM183,463c-1.2.8-1.1,1,.7,1,1.2,0,2.5-.4,2.8-1,.8-1.3-1.5-1.3-3.5,0Z"/>
      <path class="cls-2" d="M147.5,763.9c-3.9-1.2-5.5-3.5-5.5-8.1s.5-4.1,3.1-5.7c1.7-1,5.8-2.2,9.1-2.6,6.3-.7,7.7-2,5.8-5.4-1.7-3.2-9.2-3-11.7.4-2.2,3.1-6.4,2.6-5.6-.6,1-3.9,5.1-5.9,12-5.9,10.7,0,11,.5,11.4,17,.2,9.5,0,10.5-1.6,10.8-1,.2-2.2-.3-2.7-1.1-.7-1.3-1.3-1.3-4.6.4-4.1,2.1-5.3,2.2-9.8.8ZM159,757.2c1.1-1.4,2-3.4,2-4.5,0-1.8-.4-1.9-5.2-1.3-8.1,1-11.6,6.2-5.6,8.4,3.3,1.2,6.7.2,8.9-2.6ZM205.7,763.4c-6.7-2.9-9.7-12.7-6.3-20.8,1.8-4.2,6.1-6.5,12.1-6.5s10,2.8,11.4,7.8c2,7.4,2.2,7.2-9.5,7.2s-12.5.5-7.9,5.9c3.3,3.9,7.5,4.1,11,.6,1.4-1.4,3.6-2.5,5-2.5,2.4,0,2.4,0,.9,3-3.1,5.9-10.2,8.2-16.8,5.4ZM218,745.3c0-3-3.1-5.3-7-5.3s-6.1,1.7-7.3,5.2c-.5,1.6.2,1.8,6.9,1.8s7.5-.3,7.5-1.7ZM276.3,763c-5-2.5-7.3-6.8-7.3-13.4,0-9.3,4.2-13.5,13.5-13.5s6.5.4,8.2,2.2c3.3,3.6,4.3,6.3,4.3,11.2,0,12-8.9,18.5-18.7,13.5ZM286.8,758c3.9-3.6,4.1-12.2.5-16.2-.9-1-3-1.8-4.8-1.8s-4.2.8-5.4,1.8c-2.4,1.9-3.7,7.7-2.7,11.7,1.5,6.1,8.1,8.5,12.4,4.5ZM318.5,763.6c-6-2.6-6.7-10.3-1.2-13.6,1.7-1,5.4-2.1,8.2-2.5,7-.9,7.8-1.5,6.5-4.8-.9-2.3-1.6-2.7-5.5-2.7s-4.8.5-6.3,2.5c-1.5,2-2.3,2.4-4,1.8-1.7-.6-1.9-1.3-1.3-3,1.3-3.4,5.6-5.7,10.8-5.7,10.7-.1,11.9,1.5,12.4,17.7.3,10.5.3,10.8-1.8,10.8s-2.4-.6-2.7-1.4c-.5-1.2-1.2-1.1-4.3.5-4.4,2.2-6.7,2.3-10.9.5ZM330.1,758.2c.9-.9,1.9-3,2.3-4.5l.7-2.9-5.3.7c-6.6.9-8.8,2-8.8,4.5,0,4.6,7.4,6.1,11.1,2.2ZM367.5,764.1c-6.5-2-9.5-6.8-9.5-14.8s6.8-15.6,16.2-13l2.8.8v-5.4c0-5.2.9-6.6,4.1-6.6s.9,8.1.9,19c0,16.5-.2,19.1-1.6,19.6-.9.3-2,0-2.4-.7-.6-1-1.2-1-2.2-.3-1.9,1.5-6,2.2-8.3,1.5ZM374.8,758c1.8-1.6,2.2-3.2,2.2-7.8,0-7.3-1.8-10.2-6.5-10.2s-7.8,3.9-7.3,10.9c.3,4.1,1,5.9,2.7,7.2,3,2.4,6.1,2.3,8.9-.2ZM436,763.3c-1.9-1-4.5-3.4-5.8-5.3-2-3-2.3-4.4-1.9-9.2.8-9.2,4.8-13.2,13-13,2.7,0,6.1.8,7.4,1.7,2.8,1.8,5.3,7.1,5.3,10.9v2.5h-10.6c-9.3,0-10.5.2-10,1.6.3.9.6,1.9.6,2.3s.9,1.7,2,2.9c2.9,3.2,8.2,3,10.8-.4,1.4-1.8,2.8-2.5,4.5-2.2,2.3.3,2.4.5,1.3,2.7-3,5.8-10.9,8.4-16.7,5.4ZM448,745.3c0-5.2-9.4-7.5-12.4-3.1-2.9,4.1-2.1,4.8,5.4,4.8s7-.3,7-1.7ZM484,763.7c-5.1-1.8-8-6.8-8-13.6,0-9.8,4.3-14.5,13.1-14.3,6.9.1,10.8,3.8,11.6,10.6l.5,4.6h-10.1c-9.5,0-10.1.1-10.1,2,0,3,4.4,7,7.8,7s3.8-1,5.2-2.5c1.3-1.4,3.4-2.5,4.7-2.5,2.7,0,2.7,0,1.3,3.2-2.4,5.2-9.7,7.7-15.9,5.5ZM496,746.4c0-1.1-2.3-4.9-3.4-5.7-2.3-1.5-7.5-.8-9.6,1.4-3.7,4-2.7,4.8,5.5,4.8s7.5-.2,7.5-.6ZM611,763.7c-5.3-1.8-8-6.7-8-14.3s.4-6.8,2.6-9.3c6.1-7.2,18.6-5.8,22.1,2.6,1.8,4.2,1.7,10.5-.1,14.9-1,2.5-2.7,4-5.8,5.5-4.9,2.2-6,2.3-10.8.7ZM620,759c2.4-1.3,4.3-8.1,3.4-12.3-1-4.7-3.2-6.7-7.5-6.7s-7.9,3.5-7.9,10,6,12.2,12,9ZM672,764.3c-6.5-2-10-7.3-10-14.8s1.6-8.9,4.7-11.8c2.1-1.9,8.4-2.7,12-1.4,2.1.7,2.2.5,2.5-5,.3-5.1.5-5.8,2.5-6.1l2.2-.3v19.6c0,18.6,0,19.6-1.9,19.6s-2.1-.6-2.3-1.2c-.3-.9-.8-1-1.8-.1-1.8,1.4-6,2.3-7.9,1.7ZM679.7,757.4c1-1.5,1.7-4.6,1.7-7.4,0-6.5-2.4-10-6.8-10s-8.5,5.3-7.2,12.3c1.4,7.3,8.8,10.4,12.3,5ZM113,762.5c-.8-1-1.3-5.3-1.4-12-.1-9.3-.3-10.5-1.9-10.5-2.5,0-2.2-3.6.4-4.3,1.7-.4,2-1.1,1.6-3.2-.5-2.5,1.3-5.5,3.2-5.5s1,1.9,1.2,4.2c.3,3.6.7,4.3,2.6,4.6,3,.4,2.5,3.5-.6,4-2.1.3-2.2.8-2.2,7.7s1.3,13,3.4,12.2c1.3-.5,2.6,1.2,2.6,3.4s-7.7,1-9-.6ZM125.7,763.3c-.4-.4-.7-6.7-.7-14v-13.3h2.5c1.4,0,2.5.4,2.5.9s1.4.2,3-.6c3.9-1.9,7-1,7,2.2s-.5,2.4-3.4,2.4c-5.1,0-6,1.9-6.5,13.1-.3,8.5-.6,9.9-2.1,9.9s-2-.3-2.4-.7ZM179.4,760.3c-.9-2.1-2.8-7.2-4.4-11.3-1.5-4.1-3.3-8.8-3.9-10.3-1-2.6-.9-2.8,1.7-2.8s2.9.6,6.2,10c1.9,5.5,3.7,9.7,4.1,9.2s2.2-4.9,4-10c2.9-8,3.7-9.2,5.6-9.2s2.2.6,2.2,1.2c0,.7-2.2,6.9-4.8,13.8-3.9,10.4-5.1,12.5-6.9,12.8-1.8.3-2.6-.5-3.8-3.5ZM229,745.1v-19.1h5l-.3,18.8c-.3,18.6-.3,18.8-2.5,19.1l-2.2.3v-19.1ZM258,762c-.6-1.2-1.1-6.4-1.2-11.6,0-8.2-.3-9.6-1.9-10.5-2.2-1.2-2.5-3.9-.5-3.9s1.7-1.5,2.1-3.8c.7-3.7,1.9-5.2,4.3-5.2.8,0,1.2,1.5,1.2,4.5s.3,4.5,2,4.5,2,.7,2,2-.7,2-2,2-2,.7-2,9.5,0,9.5,2.6,10.5c3.5,1.3,2.5,3.4-1.8,3.8-2.8.2-3.8-.2-4.7-1.8ZM389.7,763.4c-.4-.4-.7-6.7-.7-14v-13.3h5.1l-.3,13.7c-.2,11.5-.5,13.8-1.8,14-.9.2-1.9,0-2.2-.4ZM402,752.1c0-11.4-.1-12.1-2-12.1s-2.7-3.6-.1-4.2c1.3-.3,2.1-1.8,2.5-4.6.8-4.7,2.7-6.2,8.1-6.2s3.6.3,3.3,2.2c-.2,1.6-1.2,2.4-3.3,2.8-2.4.4-3,1-3,3s.4,2.5,4,2.5,4,0,4.3-3.7c.4-4.6,3.1-6.8,8.5-6.8s3.8.2,3.5,2.2c-.2,1.6-1.2,2.4-3.3,2.8-2.4.4-3.1,1.1-3.3,3.2-.3,2.4,0,2.8,2.2,2.8s2.6.5,2.6,2-.7,2-2.5,2h-2.5l-.3,11.8c-.3,11.3-.4,11.8-2.5,12.1-2.2.3-2.2.2-2.2-11.8v-12.1h-8.9l-.3,11.8c-.3,11.3-.4,11.8-2.5,12.1-2.2.3-2.2.2-2.2-11.8ZM459.7,763.3c-.4-.4-.7-6.7-.7-14v-13.3h2.5c1.4,0,2.5.4,2.5.9s1.2.3,2.8-.5c3.8-1.9,7.4-.9,7,1.9-.2,1.6-1.2,2.2-3.8,2.6-4.8.7-6,3.6-6,14.2,0,7.8-.2,8.8-1.8,8.8s-2.1-.3-2.5-.7ZM507,750.1c0-13.2.1-14.1,1.9-14.1s2.1.6,2.4,1.2c.4,1,.7,1,1.8,0,.7-.7,3.8-1.2,7.1-1.2,8.2,0,8.9,1.2,8.9,16.2s-.2,11.8-1.8,11.8-1.9-1.2-2.5-10.7c-.4-5.8-1.2-11.2-1.8-12-1.6-1.9-6.3-1.7-8.8.4-1.8,1.5-2.1,3-2.4,11.8-.2,9.5-.4,10-2.5,10.3-2.2.3-2.2.3-2.2-13.8ZM538.6,761.8c-1.2-1.7-1.6-4.8-1.6-12s-.3-9.8-1.5-9.8-1.5-.9-1.5-2,.7-2,1.5-2,1.5-1,1.5-3.1,2.1-5.7,4.2-5.8c.4,0,.8,1.9,1,4.2.3,3.6.7,4.3,2.6,4.6,3,.4,2.5,3.5-.6,4-2.2.3-2.3.6-2,9.5.3,8.3.5,9.3,2.5,10.1,1.2.5,2.4,1.8,2.7,2.8.8,2.9-6.7,2.5-8.8-.4ZM568,753.8c-1.7-5.7-3.5-11.6-4.1-13.2-1.3-4.2-1.2-4.6,1.4-4.6s2.6.9,4.7,8.2c1.3,4.5,2.6,8.9,3.1,9.8.9,1.8.6,2.5,3.9-9.8,2.1-7.7,2.4-8.2,4.9-8.2s2.8.5,5,9.6c1.3,5.3,2.7,9.2,3.1,8.8.4-.5,1.5-3.5,2.4-6.8,2.7-9.9,3.6-11.5,6.1-11.5h2.3l-3.5,11.2c-1.9,6.2-3.8,12.4-4.2,13.8-.5,1.7-1.6,2.6-3.4,2.8-2.3.3-2.8-.2-3.8-4-2.9-11.1-4.3-15.2-4.8-13.8-.3.8-1.5,5.1-2.7,9.5-2,7.2-2.4,8-4.8,8.3-2.5.3-2.7-.2-5.7-10ZM634,750.1v-14.1h2.5c1.4,0,2.5.5,2.5,1s1.1.3,2.4-.5c2.4-1.6,7.6-1.2,7.6.6s-1.5,4-3.9,4c-5,0-5.6,1.1-6.1,12.2-.5,9.7-.6,10.3-2.8,10.6-2.2.3-2.2.3-2.2-13.8ZM652,745.2c0-19.6.1-20.2,4.1-20.2s.8,7.7.7,19.2c-.3,19.1-.3,19.2-2.5,19.6l-2.2.3v-19ZM389,728.5c0-2,.5-2.5,2.5-2.5s2.5.5,2.5,2.5-.5,2.5-2.5,2.5-2.5-.5-2.5-2.5ZM108,713c0-2,.7-2,289-2s289,0,289,2-.7,2-289,2-289,0-289-2ZM229.1,695c-11-2.3-20.2-10.1-24.1-20.5-2-5.2-2.2-7.4-1.9-17.5.3-10,.7-12.2,3-16.6,7.3-14,21.4-20.4,40.7-18.3,12,1.3,20.7,7.4,25.4,17.8,2.8,6.3,3.5,22.6,1.3,30.3-3.2,11.1-11.8,20.3-21.9,23.2-6.7,2-17,2.7-22.6,1.5ZM248.2,690c10.2-2.8,15.8-13.8,15.8-31s-8.6-33-25.5-33-12.1,1.6-16.5,5.6c-5,4.5-7.1,10.5-7.7,22.4-.6,11.7.8,19,5,26.1,5.5,9.2,17,13.1,28.9,9.8ZM312.8,695c-14.2-2.5-23.8-12.2-26.9-26.9-2.7-13.1,1-27.8,9.1-36.1,8-8.2,18.9-11.4,33.7-10,12.9,1.2,22.9,8.3,27,19.1,2.4,6.4,2.5,24.6,0,31.6-3.5,10-12.6,18.7-22.2,21.2-6.1,1.6-15.5,2.1-20.7,1.2ZM336.2,687.4c5.3-3.7,8.4-9.9,9.9-19.4,2.3-15.3-1-30.2-8.1-36.3-9.2-7.9-25.7-7.7-33.7.3s-7.2,12-7.2,25.1,4.3,26.7,14.3,31.5c4.5,2.1,6.3,2.4,13,2.1,6.6-.3,8.4-.8,11.9-3.3ZM108.7,693.4c-1.4-1.4-.7-2.2,2.4-2.9,2-.4,3.4-1.5,4-3.2.5-1.4.8-14.5.7-30.6l-.3-28.1-3.8-1.8c-2.1-1-3.8-2.2-3.8-2.7s4.2-1,9.8-.9h9.8s11.3,26.5,11.3,26.5c6.2,14.5,11.6,26.4,11.9,26.4s2.9-5.3,5.6-11.8c2.7-6.5,7.7-18.3,11.1-26.2l6.2-14.5,9.7-.3c7.8-.2,9.6,0,9.6,1.1s-1.2,1.7-2.7,2.1c-5.4,1.4-5.3.7-5.3,32s-.1,30.6,5.3,31.9c1.6.4,2.6,1.2,2.4,1.9-.5,1.5-23.9,1.7-24.4.2-.2-.5,1.1-1.7,2.9-2.5l3.2-1.5.3-24.2c.1-13.4-.1-24.2-.6-24.2s-2.9,4.8-5.4,10.8c-11.6,27.2-15.7,37-16.6,39.6-1.3,3.4-4,4.6-5.5,2.4-.6-.9-6.1-13.2-12-27.4-6-14.2-11.2-26.2-11.7-26.8-1-1.2-1.1,48.5,0,50,.4.6,2,1.4,3.6,1.8,1.6.4,2.6,1.2,2.4,1.9-.4,1.3-18.8,2.3-20,1.1ZM367,692.8c0-.7,1.5-2,3.2-2.8l3.2-1.5v-60.9l-3.2-.9c-1.8-.5-3.2-1.5-3.2-2.3s1.9-1.3,7.5-1.3h7.5c0,0,20.3,25.4,20.3,25.4,11.1,13.9,20.5,25.1,20.9,24.9.8-.5,1-40.2.2-43.2-.4-1.4-2-2.9-4-3.7-6-2.5-4-3.5,7.1-3.5s10.5.4,10.5.9c0,1.3-2.2,2.8-4.5,3.3-1.9.4-2,1.4-2.5,33.4l-.5,33h-2.4c-2.4,0-6.8-5.2-38.3-45.2-4-5.1-7.6-9.2-8-9.2-.4,0-.8,10.9-.8,24.3,0,26.1,0,25.8,5.3,27.2,1.5.4,2.6,1.2,2.4,1.8-.6,1.7-20.7,2.1-20.7.4ZM490.8,686.2c-1.4-4.3-6.1-18.5-10.3-31.8-4.3-13.2-8.4-24.8-9.2-25.7-.8-.9-2.7-2-4.3-2.3-1.6-.3-2.9-1.3-2.9-2,0-1.1,2.6-1.4,13-1.4,13.6,0,15.9.8,9.5,3.5-4,1.7-4.2,2.5-1.6,9.7,1,2.9,4.3,12.9,7.2,22.3,2.9,9.3,5.6,17.4,6,17.8.4.5,4.7-11.2,9.6-26,8.5-25.6,9-26.8,11.5-27.1,2-.2,2.8.2,3.3,2,1.9,6.5,13.9,43.9,15.2,47.6.9,2.4,1.9,3.9,2.3,3.5,1.1-1.2,15-45.1,15-47.2s-.9-2.1-3-2.6c-1.7-.4-3-1.3-3-2.1,0-1.1,2.2-1.4,11-1.4s13.7,1,7.7,3.5c-1.8.8-3.8,2-4.5,2.8-1.2,1.4-5.1,12.1-16.8,45.5-6.4,18.3-6.8,19.2-9.3,19.2s-2.9-.9-11.1-25.5c-4.7-14-8.8-25.5-9.1-25.5-.6,0-2.1,4.2-12,32.5-6.2,18-6.5,18.5-9.2,18.5s-2.7-1-5-7.8ZM558.7,693.3c-1.3-1.3-.6-2.2,2.2-2.8,4.7-1,5.5-2.4,15.4-26.5,1.9-4.7,6-14.6,9.2-22s6.1-14.7,6.7-16.2c1-2.7,5.5-4.7,6.9-3.2.4.5,4.9,12.3,9.9,26.3,15.2,42.3,13.8,39,18.2,40.8,2.1.8,3.9,2.1,3.9,2.9,0,1.1-2.4,1.3-12.7,1.1-8.5-.2-12.8-.7-13-1.4-.2-.6,1-1.5,2.7-1.8,1.7-.4,3.3-1.2,3.6-1.9s-1-5.5-2.9-10.7l-3.3-9.4-12-.3-12-.3-1.3,2.8c-2.4,5.2-6.1,15.5-6.1,17s1.3,1.9,3,2.5c1.7.6,3,1.7,3,2.4,0,1.1-2.1,1.4-10.3,1.4s-10.6-.3-11-.7ZM602.4,662.2c.5-.8-7-23.1-8.3-24.5-.6-.7-10.1,22.4-10.1,24.5,0,1,17.8,1,18.4,0ZM641,692.6c0-.8,1.2-1.7,2.7-2.1,5-1.3,5.3-2,5.3-14.9v-12.1l-5.3-9c-2.9-4.9-7.4-12.7-10-17.2-5.2-9-5.8-9.6-10.1-11-1.6-.5-3.1-1.5-3.3-2.1-.3-.8,3.5-1.1,13.2-1.1,13.8,0,16.7.9,10.6,3.2-1.7.6-3,1.8-3,2.7,0,2.1,14.3,26.3,15.5,26.3,1.4,0,14.7-25.4,14.1-26.9-.2-.7-1.8-1.5-3.5-1.9-1.7-.4-3.1-1.3-3.1-2,0-1.1,2.3-1.3,11-1.3,8.2,0,11,.4,11,1.4s-1.3,1.6-2.9,1.9c-4,.9-4.6,1.8-15,20.3l-9.1,16.3v25.9l4,1.1c2.3.6,4,1.7,4,2.5s-2.3,1.5-13,1.5-13-.3-13-1.4ZM355,582.5c-50.9-6.3-97-24.7-136-54.4-37.6-28.6-67.1-65.5-86.2-108.1-11.8-26.4-18.4-49.2-22.4-78.3-2.1-14.9-2.3-52.3-.5-67.2,12.7-100.6,74.2-183.2,166.4-223.4,24.2-10.5,56-18.8,81.7-21.2,22-2.1,53.5-1.1,72.5,2.1,49,8.4,95.9,29.3,131,58.5,2.8,2.3,10.2,7.7,16.5,11.9,14,9.5,20.5,14.8,33.5,27.4,59.1,57.3,85,138.4,70.5,220.8-11.4,64.6-49.9,123-106,160.7-4.1,2.8-11.5,8.2-16.5,12.1-38.4,30.2-84.2,50.3-132,57.8-17.2,2.7-55.7,3.4-72.5,1.3ZM380.4,574.9c4.9-4.3,9.9-14.7,10.4-21.8l.4-5.7-12.7-3.2-12.7-3.2-3.8,2.4c-12.8,8-28.4,5.7-47.7-7-12.3-8.1-22.5-21.7-24.9-33.1-.5-2.2-2.5-4.8-6.6-8.4-3.3-2.9-6.3-4.9-6.6-4.6-1.1,1.1,2.5,15.4,5.2,20.7,8,16,19.4,26.7,41.3,38.9,2.3,1.3,4.2,2.7,4.2,3.2,0,1.4-12.2.9-18.5-.7-11-2.8-19.8-7.9-29-16.8-7.2-7.1-9-9.5-12.9-17.7-5.6-12-6.9-18.4-6.5-32.4.4-11,.3-11.2-2.5-14.5-2.4-2.9-3.1-3.2-4.5-2.2-.9.7-3.7,2.2-6.1,3.3-5,2.4-3.6,2.5-23.8-2.8-10.4-2.8-11.9-4.3-3.4-3.8,4.1.3,4.2.2,1.2-.4l-3.5-.7,5.1-.7c4.9-.7,12.5-4.6,17.2-9,2.6-2.4,2.6-2.6.8-5.1-1.4-1.8-1.5-1.8-4.8.7-9.4,7.2-30.9,14-36.3,11.5-2-.9-2.7-.9-3.4.2-.5.9-1.5,1.1-2.7.6-1.5-.7-1.3-1,1.6-1.8,19.1-5.3,29.6-9.5,37.3-15,5-3.6,2.1-2.9-5.5,1.2-8.5,4.6-12.2,5.8-29.8,9.6-11.5,2.5-28.6,7.7-30.2,9.3-.4.4,0,1.5.7,2.6,1.4,1.9,1.5,1.9,8.2,0,4.5-1.2,10.2-1.9,16.8-1.9,9.3,0,10.5.2,16.7,3.3,10.1,5,16.4,13.6,18.8,25.9,1.5,7.6-.1,18.1-3.4,21.9l-2.1,2.5-3.9-3.3c-2.2-1.8-7.6-6.5-12-10.3-15.1-13.2-20.3-17.5-21.2-17.5-1.4,0,19.6,20.7,26.6,26.3,3.6,2.8,6.7,5.4,7,5.7.3.3,3.1,2.5,6.3,4.8l5.8,4.3,1.1-2.8c1.8-4.7,2.3-18.3.9-26.1-1.5-8.9-6.4-19.1-12-24.9-2.2-2.3-3.7-4.2-3.2-4.2s3.9.9,7.6,2c5.6,1.7,7.7,3.1,12.9,8.2,5.9,5.8,11.6,15.2,11.6,19.2s1.1,2,2.4,2.5c2.9,1.1,8.5,9.5,11.6,17.6,1.9,4.9,2.4,8.1,2.6,17.2.1,6.1.5,11.6.8,12.1.3.5,2.6,1.7,5,2.7l4.4,1.7,2.6-2.6c1.9-2,3.4-2.5,5.8-2.3,2.9.3,3.2.7,3.2,3.3,0,5.9,2.6,8.1,13.5,11.5l10,3.1,3.8-3c6.8-5.3,15.6-6.7,24.4-3.7,5.2,1.8,11.4,7.4,13.4,12.1,1.5,3.7,2.6,4,15.7,4.2,7.3.1,7.9,0,11.2-2.9ZM338.9,572.6c1.5-.8,3.5-1.7,4.6-2.1,1.9-.6,1.9-.7-.5-2-1.4-.8-4-1.4-5.7-1.4-3.5,0-11.3,2.7-11.3,3.9s1.9,1.2,4.2,1.8c5.9,1.4,5.6,1.4,8.6-.2ZM437,552c-2.3,0-2.9.5-3.4,3.1-1.4,7,.1,18.9,2.4,18.9s5.6-1.1,11.2-2.4c13.8-3.3,30.2-8.5,42.2-13.6,16.3-6.8,43.5-21.3,42.3-22.5s-6.4,1.6-13.8,4.1c-21.1,7-50.7,12.5-68,12.5M482,543.7c50-9.2,92.9-31.6,128.7-67.4,36.4-36.4,59.2-81.5,68-134.8,2.8-16.9,2.5-56.3-.5-74-7.2-42.2-24.4-80.5-50.6-113-7.9-9.8-25.5-27.5-35-35.2-26.6-21.6-60-38.3-93.4-46.7-41.1-10.4-88.7-9.1-129.6,3.4-51.8,15.9-99.7,51.4-128.9,95.5-9.2,13.9-11.4,17.8-18,31.6-10.7,22.5-18.3,48.2-21.7,73.9-1.9,13.8-1.6,46.9.5,61.5,7,49.1,29.5,96.4,62.6,131.8,40.2,42.9,92.1,68.7,153,76.1,1.9.2,14.3.3,27.5,0,20.3-.3,26.1-.7,37.5-2.8ZM354.1,542c1.6,0,2.9-.5,2.9-1s-2.4-1-5.3-1c-16.6,0-34.7-10-44-24.2-2.8-4.3-4.8-6-4.7-4,0,.4,1.4,3.2,3.1,6.2,7.4,12.9,21.5,22.2,36.6,24.1,3.2.4,6.4.6,7.1.4.7-.2,2.7-.4,4.2-.4ZM244.8,537.4c-.3-.3,0-2.6.8-5.2,3.1-10.1,1.1-24.2-4.9-36.2-3.4-6.6-10.4-15.3-14.1-17.3-1.3-.7-.5.7,2,3.6,6.2,7,12.1,19.8,14,30.2,1.4,7.5,1.4,9.9.4,16.1-1.2,7.3-1,9.3,1.1,9.3s.9-.2.6-.5ZM255,530c0-3.8-.4-7-.9-7s-.8,3-.6,6.8c.4,7.5.3,7.2,1,7.2s.5-3.2.5-7ZM253.6,514.3c-1-1-1.9.5-1,1.9.6,1,.9,1,1.2,0,.2-.7.2-1.5-.2-1.9ZM175.8,457.8c3.9-2.7,7.7-4.2,14.5-5.8,20.2-4.6,24.4-5.9,32.5-10,9-4.6,9.1-4.7,3.8-14.3-2.5-4.6-4.9-8.9-5.4-9.6-.7-1-2-.7-6.2,1.5-14,7.3-30.8-.9-41.4-20.1-5.6-10.2-7-15.8-7-27.6,0-15.4,3.8-26.1,11.7-34.1,3.4-3.4,12-7.9,14.9-7.9,1,0,1.8-.5,1.8-1,0-1.4.6-1.5-14.3,2.9-15.7,4.6-25.6,8.9-31.5,13.7-5.3,4.3-5.4,3.6-.5-2.4,2.1-2.5,3.1-4.3,2.2-4-3.9,1.6-12.2,3.9-12.6,3.5-.2-.2.3-2.2,1.2-4.3.9-2.1,1.8-7.5,2.1-11.9.3-4.4.9-9.3,1.5-10.8,1.7-4.4,11-8.3,14.3-5.9,2,1.5,1.5,3.2-1,3.2s-2.5.5-2.5,1,.6,1,1.2,1,1.3,1.2,1.3,2.8.4,5.2.9,8.3c.7,5.1.6,5.8-1.9,8.8-3.2,3.8-2.8,4,2,.8,2-1.3,6.7-3.6,10.5-5.2,4.9-1.9,7-3.2,7-4.5s4.2-5.9,10.6-10.7l2.9-2.2-3.3.6c-4.4.8-7.2-1.8-7.2-6.5s2.3-7.2,8.3-7.2,4.9-.2,4.2-1.8c-1.6-3.8-1.6-8.6,0-13.9,1.2-3.8,1.6-7.3,1.2-11.4l-.5-5.8,3.2-.3c2.8-.3,3.2-.7,3.4-3.9.3-3.4.1-3.6-5-5.5-3.7-1.3-7.8-1.9-13.4-1.9-7.1,0-9,.4-14.7,3.3-7.5,3.7-11.9,8.6-13.7,15.2-4.3,15.9,9,28.3,19,17.7,3.4-3.7,4.5-8.3,1.2-5.4-2.5,2.2-4.6,2.1-7.6-.6-4.4-3.9-3.6-11.6,1.5-14.3,8.1-4.2,18.7,1,20.4,10,2,10.8-8.8,23.4-21.6,25.1-6,.8-12.2-2.5-17.1-9-12.4-16.6-3.9-42.9,17.2-53,6-2.9,7.3-3.1,17.5-3.1s11.8.4,15.6,2.1l4.6,2.1,3.3-11c3-9.9,7.1-20.6,14.1-36.7,3-6.9,15.3-26.8,23.6-38.1,3.5-4.8,6.3-9.1,6.3-9.7s-1-2.1-2.2-3.3c-1.7-1.7-1.8-2-.5-1.6,1.2.4,1.8.1,1.8-.9s.5-1.2,1.1-.9c.6.4.8,1.3.5,2s0,1.7.6,2.1c.7.4,4-2.4,8.4-7.2,6.9-7.4,7.3-8.2,7.3-12.5s-.6-6.9-1.4-9.8c-1.3-5.2-1.3-5.2.8-4.6,3.6,1.1,8,3.5,10.3,5.7l2.2,2,6.8-5.4c3.7-3,9.1-7.1,12-9.2,2.9-2.1,5.2-4.1,5.2-4.5,0-.4-2.7-2.7-6-5.1-6.2-4.6-22.7-21.1-29.2-29l-3.6-4.5-7.3,3.9c-9.9,5.3-24.1,14.5-25.1,16.2-.4.8-1.2,1.4-1.8,1.4-1.5,0-8.9,5.2-8.9,6.2s1,.7,2.3.4c3.3-.8,14.2,1.1,19.2,3.4,16.2,7.4,24.4,28,15.5,39.2-2.6,3.3-18.5,12.6-23.8,14-3.5.9-5.1.8-8.6-.6-5.4-2.1-12.7-9.2-15.6-15.2-3.9-8.1-3.6-22.2.7-30.7.8-1.5,1-2.8.6-2.8s-4.9,3.8-9.8,8.4c-5.8,5.5-8.3,8.5-7.2,8.5,2.1,0,2.2.9.2,3.5-2.4,3.2-1.7,5.2,3.4,10.9,5.5,6.1,5.8,6.8,6.9,15.8.7,6.1.7,6.5-1.5,7.6-1.7.8-3.7.8-7.7-.2-10.2-2.4-15.7-7.6-17.1-16.4-.5-3.4-1-4.1-2-3.2-1,.9-.7,2.8,1.5,9.8,1.5,4.8,3.6,12.3,4.5,16.7,1.8,8.4,2.5,24.8,1.2,26.1s-14.3-5.1-24-13.4c-3.4-2.9-6.4-5.2-6.7-5.2-1.1,0-4,6.3-4,8.9,0,4.7-3,12.1-4.6,11.4-.9-.3-1.4,0-1.4,1.1s-.4,1.4-.9,1.1c-.9-.6-3.1,2.4-3.1,4.2s1.2,1.5,2.6,2.3c1.4.8,3.3,2.7,4.1,4.3,1.3,2.5,1.4,3.7.3,8.3-1,3.9-1,6-.2,7.7,1.2,2.7.8,3.6-2,3.6-5.4,0-9.3-4.6-10-11.5-.2-2.2-1.5.6-5,11.1-2.6,7.8-4.8,14.4-4.8,14.8s2.5.4,5.5,0c3.7-.5,5.5-.3,5.5.4s3.7-1.1,8.2-3.8c4.5-2.7,9.8-5.3,11.8-5.9,3.5-1.1,13-2.3,13-1.6s-4.6,2.6-10.2,5.3c-7,3.4-13.9,7.9-21.7,14.1-6.3,5-12.7,9.8-14.2,10.6-1.5.8-2.8,2-2.8,2.7,0,.7-.3,2.9-.6,5l-.6,3.8h3.7c6,0,9.7,2.5,12.1,8.5,2,4.7,1,9.7-2.6,13.5-3.1,3.4-7.7,3.9-12,1.5-1.4-.8-2.8-1.5-3.2-1.5-.4,0-.8,8.1-.8,18s.2,18,.6,18,1.7-1.3,3-2.9c3.1-3.7,10.7-7.3,13.8-6.5,1.8.5,2.6,1.7,3.5,5.6,1.8,7.6,1.4,12.1-1.4,18.1-2.8,6.1-2.4,9.3,1.5,12,1.9,1.3,2,1.6.4,2.8-.9.8-3.6,1.4-6,1.4-3.7,0-4.9-.6-8.3-4-2.4-2.3-4.1-3.4-4-2.5,0,2,4.6,23.9,5.1,24.4.2.2,1.6.7,3.2,1.1,2.6.6,2.8.5,2.8-2.9s.2-3.6.5-3.6c1.7,0,11.6,4.6,16.3,7.6,15.8,10.1,26.8,28.9,28,47.9.7,10.9-1.5,18.9-7.7,28.2l-4.8,7.2,2.4,3.5c2.7,4,1.7,4.3,13.2-3.6ZM213,407.2l2.2-1.8-3.4-8.2c-1.8-4.5-3.8-8.2-4.4-8.2-2.1,0-6.5-5.8-7.1-9.3-.3-2.1,0-5,.8-6.9,1.9-4.5,1.3-6.4-3.2-10.7-3-2.8-3.9-4.6-4-7.1-.2-5.8.2-8.3,1.7-10.6.9-1.4,1-2.2.4-2.2s-2.2,2.4-3.5,5.2c-3.3,7-3.2,13.3.1,19.9,1.4,2.8,2.3,5.3,2.1,5.5-2.1,2-13.7-9.3-13.7-13.4s-.4-2.3-.9-2.3c-2.3,0-2.8,16.3-.8,25.1,2.6,10.8,9.8,19.7,20,24.4,6.1,2.9,10.6,3.1,13.6.6ZM126.9,378.9c-2.5-3.5-4.4-3.9-3.6-.7.3,1.2.6,2.5.6,2.9,0,.8,3.2,1.6,4.3,1.1.4-.2-.2-1.7-1.3-3.3ZM126.2,283.3c2.6-2.3,2.4-8.1-.3-11-1.5-1.6-3.3-2.3-6-2.3s-3.8.2-3.8,2.9.6,3.1,1.4,3.4c.8.3,1.7,1.8,2.1,3.4,1.3,5.4,3.5,6.6,6.7,3.7ZM235.2,135.3c1-.9,1.8-2.2,1.8-2.9,0-1.4,3.8-3,4.7-2,1.2,1.2,6.1-2.5,7.7-5.9,2.1-4.4,1.5-8-2.4-13.3-5.4-7.5-19-11.7-24.8-7.6-8.3,5.8-8.2,24.6.3,31.3,3.4,2.7,10,2.9,12.7.5ZM330.6,86.3l13.4-6.7v-7.3c0-4,.4-7.3.8-7.3s1.9,1.2,3.2,2.6c1.3,1.4,3.9,3.5,5.8,4.7l3.4,2.1,10.1-2.8c12.6-3.5,13.6-4,13.6-6.9s3.1-5.7,7.9-6.3c2.2-.3,4.1-.7,4.1-1s-.7-1.8-1.6-3.5c-1.3-2.4-1.4-4.7-.9-11.5l.7-8.4h-9.3l1.4,2.8c3.7,7.2,2.5,15.8-3.3,23.1-3.6,4.6-12,9.1-16.8,9.1-10.7,0-22.5-12.3-24-25.1-.7-5.6-1.5-5.9-9.9-3.8-6,1.5-6,4.3,0,10.7,5.7,6.2,6.4,7.7,7.2,15.3.6,6.3.6,6.4-2.2,7.6-2.3,1-3.9.9-8.3-.2-12-3.2-17.7-12.1-15.3-23.8l1-4.9-3.1.6c-1.7.3-3.4,1-3.7,1.4-.4.4,1.3,6.6,3.7,13.7,2.4,7.2,5.1,17.4,6.1,22.8,1,5.4,1.9,9.8,2.1,9.8s6.4-3,13.8-6.7ZM529,74.5c-8.7-5.5-29.5-15.9-41.5-20.7-16.2-6.5-45.6-15-47-13.6-.3.3.2,2.7,1,5.4,2.1,6.9,1.9,9.3-.8,10.5-3.3,1.5-7.5-.4-9.1-4.2-1.8-4.1-1-7.4,2.5-10.3,3.3-2.8,2.8-3.2-5.8-4.1l-5.8-.7v24.2h9.5c5.2,0,11.3-.5,13.5-1,2.2-.5,4.4-.5,5,0,.6.5,5.5,1.1,11,1.5,18.4,1.3,42.8,6.5,60.5,12.9,12.2,4.4,13.8,4.4,7,.1ZM399,63.1c0-.5-.7-1.4-1.5-2.1-1.6-1.3-1.8-1-.9,1.4.6,1.7,2.4,2.2,2.4.7ZM284.4,59c-2.8-4.3-3.1-4.5-5.4-3-1.7,1-1.5,1.3,3.2,4.6,4.7,3.3,5.2,3,2.2-1.6ZM289.8,57.8c-1.1-4.9-1.2-5.1-3.2-4.6-1.2.3-1.2,1,.5,4.6,2.6,5.4,3.9,5.5,2.6,0ZM369.8,53.5c2.1-2.3,3.2-4.5,3.2-6.3,0-1.5-.3-2.2-.6-1.4-1,2.5-5.2,3.3-8.4,1.7-3.6-1.9-5.3-4.9-4.7-8.6.4-2.8.3-2.9-4.2-2.9-6.4,0-7.5.9-6.6,5.6,2.7,14.8,13.2,20.7,21.3,11.9ZM416,52c-.5-2.8-5.1-17.3-5.6-17.3-1.1,0,3.2,20.5,4.3,21.6,1.2,1.2,2.3.7,1.3-4.3ZM364.7,570.5c.3-2.1-.2-6.2-1.2-10-1.9-6.9-1.2-9.5,2.5-9.5s5-3,5-4.8,4-1.3,6.5,1.2c7.7,7.7,3.6,21.8-7.4,25.5-5.5,1.8-6,1.6-5.4-2.4ZM388,425.9c-6.2-18.9-14.1-43.4-17.7-54.4s-7.2-22-8.1-24.4c-1.8-5-.3-5-18.8-.7-13.1,3-28.8,4.3-40.2,3.4-28.9-2.4-54.3-19.7-54.3-37s6.6-20.6,18.8-26.6l7.7-3.7h15c11.7,0,16.3.4,21,1.9,8.2,2.5,23.6,10.6,31.6,16.5,7,5.2,17.3,16.4,21.1,23.1,1.3,2.2,2.9,4,3.6,4,1.6,0,51.8-20.2,101.7-41,5.5-2.3,15.9-6.3,23-9,8.4-3.1,12.9-5.3,12.8-6.2-.5-2.7-31.3-89.3-32-90-.4-.4-7.9,20.7-16.6,47-8.7,26.2-16.2,48.1-16.5,48.5-.4.4-2.4.9-4.5,1-3.8.2-3.8.2-5.6-5.3-5.2-16-20.4-63.4-24.5-76.5-2.6-8.2-5-15.4-5.3-16-.3-.5-2.9,6.2-5.7,15-2.8,8.8-9,28-13.8,42.6-4.8,14.7-8.6,28-8.6,29.7,0,2.8.4,3.2,4.2,4.2,6.5,1.7,6.8,1.8,6.8,4s-.6,2-19,2-19-.1-19-1.9,1.6-2.4,6-4.1c3.3-1.2,6.7-3.2,7.5-4.4,1.6-2.5,5.3-12.7,29.7-82.2,3.9-11,7.9-22.4,8.9-25.4,2.2-6.3,3.1-7,8.1-7h3.7s15.1,46,15.1,46c8.3,25.3,15.5,46,15.8,46s2.1-4.4,4-9.8c1.8-5.4,8.4-24.4,14.6-42.2,6.2-17.9,11.6-33.5,12-34.7,1.1-3.6,3.4-5.3,7.4-5.3h3.7l8.1,24.8c4.5,13.6,12.9,39.4,18.8,57.3,5.9,17.9,11,33.1,11.4,33.8.6.9,3.2.7,11.2-1.2,24.9-5.8,44.5-6.7,60.4-2.7,16.8,4.2,32.7,14.6,37.6,24.7,2.9,6,3,14.1.2,20.4-12.2,27.5-58.6,27.9-92.6.8-6.8-5.4-16.5-16.2-19.9-22.1-2.2-3.9-4-4.5-8-2.8-1.3.5-9.3,3.6-17.8,7-8.6,3.3-22.1,8.8-30,12.1-28.4,12.1-71.1,29.2-80.7,32.4-2.9,1-5.2,2.1-5.2,2.5s.7,2.8,1.6,5.2c.9,2.4,3.8,10.5,6.4,17.9,2.6,7.4,7.3,20.5,10.3,29,3,8.5,6.5,18.3,7.6,21.7,4.1,12.3,6.3,17.5,7.1,16.7.4-.5,7.8-22.1,16.4-48,10.1-30.4,16.2-47.4,17.2-47.8.8-.3,2.8-.6,4.4-.6,2.7,0,3,.4,5.5,8.2,1.4,4.5,6.6,20.6,11.5,35.8s10.8,33.5,13.1,40.8c2.3,7.3,4.5,12.9,4.9,12.5.4-.4,5-14.3,10.4-30.8,14.6-45.1,17.6-54.8,17.6-56.6s-1.8-2.3-5.8-3.6c-4.5-1.5-5.8-2.4-6.1-4.2-.3-2.2,0-2.3,3.5-1.7,2.1.4,11,.6,19.7.6,14.5,0,15.8.2,15.5,1.8-.2,1.1-2.5,2.5-6.2,3.8-3.4,1.2-6.6,3.1-7.6,4.5-1.9,2.7-8.3,20.5-34.5,95.4l-6.3,18-4.2.9c-2.5.5-4.5.5-5,0-.5-.5-7.5-21.1-15.6-45.9-8.1-24.8-15.1-45.4-15.5-45.8-.4-.5-1.7,1.8-2.8,5-1.1,3.2-5.5,15.7-9.7,27.8-4.2,12.1-9.4,27-11.5,33-7.5,22-8.2,24-8.9,24.7-.4.4-2.5,1-4.8,1.4l-4.1.7-11.2-34.4ZM319,341.4c10.8-1.7,27.7-5.9,32.8-8l3.4-1.4-4.3-6.3c-2.4-3.4-9.5-11.5-15.8-17.9-17.6-17.8-30.8-23.9-49.2-22.6-11.5.8-20,5.2-24.5,12.6-7.1,11.9-6.3,23.3,2.1,31.5,12.1,11.8,31.5,16,55.5,12.1ZM599.5,326.9c8.7-1.6,14.8-5.1,18.5-10.5,8.5-12.4,7.8-25.9-1.9-34.6-15.1-13.6-41-15.5-76.7-5.7-6.1,1.7-11.6,3.4-12.4,3.9-3,1.8,18.8,27.2,30.3,35.4,15.2,10.9,27.6,14.2,42.1,11.5ZM186.3,443c-6.4-2.9-10.3-12.5-7.9-19.8.9-2.7,1.3-2.7,8.8-.6,5.1,1.4,6.3,2.3,9.4,6.6,3.4,4.8,3.7,5,7.5,4.5,3.5-.5,3.9-.3,3.9,1.6,0,7.8-12,12.1-21.7,7.7ZM160.7,381.5c-5.5-7.6-14.4-14.9-20.4-16.7-2.4-.7-4.3-1.9-4.3-2.6,0-2.2,8-5.2,14.2-5.2,5.7,0,5.8,0,5.8-3,0-5.9,4-10.1,11.7-12.5l2.2-.7-2.3,5.3c-4.8,10.8-5.8,22.5-3.1,34.4.8,3.7,1.4,6.8,1.2,7-.2.2-2.5-2.5-5-6.1ZM163.5,327.1c-.3-.5-.1-1.2.4-1.5.9-.6.9-1.7-.5-7.8-.8-3.7,1.6-7.3,6.2-9.2,2-.8,3.7-1.5,3.8-1.5s0,3.7-.2,8.2c-.4,7.2-.7,8.5-2.9,10.5-2.6,2.3-5.8,3-6.8,1.3ZM180.5,219.9c-1.7-.5-4.3-2.2-5.9-3.9-2.1-2.2-3.8-3-6.3-3-3.7,0-10.8,3.2-11.6,5.2-.7,1.9-2.7-3.8-2.7-7.9,0-9.2,7.6-15.7,18.5-15.7s6.9.5,11.3,3.3c2.8,1.8,6.2,4.6,7.6,6.3,2.9,3.4,2.9,3.3,1-4.7-1.9-8-1.8-12.2.5-17.2,3.2-7.1,12.9-12.6,19.3-11,2.6.7,10.8,5.8,10.8,6.8s-1,.9-2.2,1.2c-1.2.3-4,2-6.1,3.7l-3.8,3.2.7,7.9c.7,7.6.6,8.2-2.6,14.4-1.8,3.6-3.6,6.5-4.1,6.5s-1.5-1.4-2.4-3c-2.1-4.1-2.6-3.8-1.8,1.6.6,4.4.5,4.6-1.3,3.6-1.1-.6-2.6-1.8-3.3-2.6-2.4-2.9-3.2-1.6-1.1,1.8,1.1,1.8,1.8,3.6,1.4,4-.9.9-12.2.6-15.9-.4ZM226.7,168.6c-1.1-1.6-3.5-3-7.1-4.1-4.2-1.2-5.9-2.3-7-4.5-1.7-3.3-2.1-15-.5-15s2.5,1.4,4.2,3.1c1.8,1.7,5.4,4.2,8,5.5,6.1,3.1,8.2,6.3,7.4,11.1-.3,2-1.2,4.3-2,5-1.2,1.2-1.6,1-3-1.1ZM268.9,107.1c-5.9-3.8-8.6-7.3-10.5-13.8-1.8-6.2-4.9-8.9-9-7.9-2.5.6-2.6.5-1.9-2.1,1-4.2,4.7-7.4,9.3-8,4.9-.6,13.9,1.8,17.8,4.8,6,4.7,8,14.3,4.9,23.6-1.7,5.1-4.1,8.6-3.1,4.5.3-1.2.1-2.5-.4-2.8-.5-.3-.9.6-.9,2,0,3.2-.6,3.2-6.1-.3ZM232.5,127.9c-5.7-1.6-8.6-11.5-4.3-14.7,1.4-1.1,2.4-.9,5.7.7,4.8,2.4,5.3,3.2,5.4,7.6.1,4.8-2.7,7.4-6.8,6.3Z"/>
    </g>
  </g>
</svg>